<svg id="visual" viewBox="0 0 900 600" width="900" height="600" xmlns="http://www.w3.org/2000/svg" xmlns:xlink="http://www.w3.org/1999/xlink" version="1.1"><rect x="0" y="0" width="900" height="600" fill="#CCCCCC"></rect><path d="M662 0L366 0L366 60L575 60L575 120L382 120L382 180L346 180L346 240L474 240L474 300L490 300L490 360L588 360L588 420L475 420L475 480L346 480L346 540L544 540L544 600L0 600L0 540L0 540L0 480L0 480L0 420L0 420L0 360L0 360L0 300L0 300L0 240L0 240L0 180L0 180L0 120L0 120L0 60L0 60L0 0L0 0Z" fill="#a8a89e"></path><path d="M320 0L459 0L459 60L362 60L362 120L206 120L206 180L254 180L254 240L292 240L292 300L136 300L136 360L287 360L287 420L390 420L390 480L482 480L482 540L205 540L205 600L0 600L0 540L0 540L0 480L0 480L0 420L0 420L0 360L0 360L0 300L0 300L0 240L0 240L0 180L0 180L0 120L0 120L0 60L0 60L0 0L0 0Z" fill="#666156"></path></svg>